<svg width="24" height="18" viewBox="0 0 24 18" fill="none" xmlns="http://www.w3.org/2000/svg">
<path d="M21.6299 3.10014L12.6299 0.100145C12.22 -0.0301264 11.7798 -0.0301264 11.3699 0.100145L2.36991 3.10014C1.91762 3.2488 1.53319 3.55393 1.28574 3.96067C1.03829 4.36741 0.94406 4.84909 1.01998 5.31909C1.09591 5.7891 1.33701 6.21661 1.69994 6.52475C2.06287 6.83289 2.52382 7.00146 2.99991 7.00014V16.0001C2.7347 16.0001 2.48034 16.1055 2.29281 16.293C2.10527 16.4806 1.99991 16.7349 1.99991 17.0001C1.99991 17.2654 2.10527 17.5197 2.29281 17.7073C2.48034 17.8948 2.7347 18.0001 2.99991 18.0001H20.9999C21.2651 18.0001 21.5195 17.8948 21.707 17.7073C21.8946 17.5197 21.9999 17.2654 21.9999 17.0001C21.9999 16.7349 21.8946 16.4806 21.707 16.293C21.5195 16.1055 21.2651 16.0001 20.9999 16.0001V7.00014C21.476 7.00146 21.937 6.83289 22.2999 6.52475C22.6628 6.21661 22.9039 5.7891 22.9798 5.31909C23.0558 4.84909 22.9615 4.36741 22.7141 3.96067C22.4666 3.55393 22.0822 3.2488 21.6299 3.10014ZM10.9999 7.00014V16.0001H8.99991V7.00014H10.9999ZM12.9999 7.00014H14.9999V16.0001H12.9999V7.00014ZM4.99991 7.00014H6.99991V16.0001H4.99991V7.00014ZM18.9999 16.0001H16.9999V7.00014H18.9999V16.0001Z" fill="#141414"/>
</svg>
